<svg xmlns="http://www.w3.org/2000/svg" xmlns:xlink="http://www.w3.org/1999/xlink" zoomAndPan="magnify" viewBox="0 0 375 374.999991" height="500" preserveAspectRatio="xMidYMid meet" version="1.0"><defs><clipPath id="1360291eb8"><path d="M 8.996094 81.652344 L 365.796875 81.652344 L 365.796875 337.398438 L 8.996094 337.398438 Z M 8.996094 81.652344 " clip-rule="nonzero"/></clipPath></defs><g clip-path="url(#1360291eb8)"><path fill="#095b25" fill-opacity="0.6" d="M 63.140625 148.402344 L 63.140625 176.859375 L 38.503906 191.085938 L 30.324219 186.363281 L 13.863281 176.859375 L 13.863281 148.402344 L 38.503906 134.175781 L 44.644531 137.722656 Z M 119.71875 87.277344 L 137.121094 97.328125 L 144.355469 101.503906 L 144.355469 129.960938 L 142.238281 131.183594 L 119.714844 144.1875 L 95.078125 129.960938 L 95.078125 101.503906 Z M 333.855469 270.65625 L 309.21875 284.882812 L 284.582031 270.65625 L 284.582031 242.199219 L 309.21875 227.972656 L 333.855469 242.199219 Z M 230.4375 242.199219 L 255.078125 227.972656 L 279.714844 242.199219 L 279.714844 270.65625 L 255.078125 284.882812 L 230.4375 270.65625 Z M 146.789062 284.882812 L 122.152344 270.65625 L 122.152344 242.199219 L 146.789062 227.972656 L 171.425781 242.199219 L 171.425781 270.65625 L 159.863281 277.332031 Z M 119.71875 181.074219 L 144.355469 195.300781 L 144.355469 223.757812 L 119.71875 237.984375 L 95.078125 223.757812 L 95.078125 195.300781 L 102.863281 190.804688 Z M 146.789062 134.175781 L 171.425781 148.402344 L 171.425781 176.859375 L 148.683594 189.992188 L 146.789062 191.085938 L 122.152344 176.859375 L 122.152344 148.402344 L 140.328125 137.90625 Z M 252.640625 223.757812 L 228.003906 237.984375 L 203.367188 223.757812 L 203.367188 195.300781 L 228.003906 181.074219 L 252.640625 195.300781 Z M 149.222656 195.300781 L 157.007812 190.804688 L 173.859375 181.074219 L 198.496094 195.300781 L 198.496094 223.757812 L 189.71875 228.824219 L 173.859375 237.984375 L 149.222656 223.757812 Z M 200.933594 284.882812 L 176.292969 270.65625 L 176.292969 242.199219 L 200.933594 227.972656 L 219.714844 238.820312 L 225.570312 242.199219 L 225.570312 270.65625 L 222.875 272.210938 Z M 328.140625 185.777344 L 336.289062 181.074219 L 343.382812 185.167969 L 360.925781 195.300781 L 360.925781 223.757812 L 336.289062 237.984375 L 316.351562 226.472656 L 311.652344 223.753906 L 311.652344 195.300781 Z M 265.945312 190.429688 L 282.148438 181.074219 L 306.785156 195.300781 L 306.785156 223.757812 L 282.148438 237.984375 L 262.210938 226.472656 L 257.507812 223.753906 L 257.507812 195.300781 Z M 225.570312 148.402344 L 225.570312 176.859375 L 204.3125 189.132812 L 200.933594 191.085938 L 176.292969 176.859375 L 176.292969 148.402344 L 200.933594 134.175781 L 213.707031 141.550781 Z M 40.9375 223.757812 L 40.9375 195.300781 L 57.023438 186.011719 L 65.574219 181.074219 L 90.210938 195.300781 L 90.210938 223.757812 L 65.574219 237.984375 L 55.175781 231.980469 Z M 252.640625 317.554688 L 228.003906 331.78125 L 208.558594 320.554688 L 203.367188 317.554688 L 203.367188 289.097656 L 228.003906 274.871094 L 252.640625 289.097656 Z M 68.007812 148.402344 L 87.320312 137.25 L 92.644531 134.175781 L 117.285156 148.402344 L 117.285156 176.859375 L 95.835938 189.242188 L 92.644531 191.085938 L 68.007812 176.859375 Z M 364.519531 191.753906 L 337.566406 176.1875 L 337.566406 176.191406 L 336.289062 175.453125 L 335.015625 176.1875 L 316.464844 186.902344 L 309.21875 191.085938 L 283.421875 176.1875 L 283.421875 176.191406 L 282.148438 175.453125 L 280.871094 176.1875 L 262.625 186.726562 L 255.074219 191.085938 L 230.4375 176.859375 L 230.4375 145.59375 L 229.160156 144.855469 L 202.207031 129.289062 L 200.933594 128.554688 L 199.65625 129.289062 L 173.859375 144.1875 L 162.402344 137.570312 L 149.222656 129.960938 L 149.222656 98.695312 L 147.945312 97.957031 L 120.992188 82.390625 L 120.941406 82.363281 L 119.722656 81.652344 L 118.441406 82.390625 L 111.808594 86.222656 L 90.210938 98.695312 L 90.210938 129.960938 L 65.574219 144.1875 L 39.777344 129.289062 L 38.503906 128.554688 L 37.226562 129.289062 L 10.273438 144.855469 L 10.226562 144.882812 L 8.996094 145.585938 L 8.996094 179.667969 L 10.273438 180.40625 L 36.070312 195.300781 L 36.070312 226.566406 L 37.34375 227.304688 L 64.300781 242.867188 L 65.574219 243.605469 L 66.851562 242.867188 L 92.644531 227.972656 L 111.570312 238.898438 L 117.285156 242.199219 L 117.285156 273.464844 L 118.558594 274.203125 L 145.511719 289.765625 L 145.515625 289.765625 L 146.789062 290.503906 L 148.066406 289.765625 L 148.304688 289.628906 L 173.863281 274.871094 L 198.496094 289.097656 L 198.496094 320.363281 L 199.773438 321.101562 L 210.453125 327.265625 L 226.796875 336.707031 L 228.011719 337.398438 L 229.28125 336.664062 L 256.234375 321.101562 L 257.507812 320.363281 L 257.507812 289.097656 L 282.148438 274.871094 L 307.941406 289.765625 L 307.945312 289.765625 L 309.21875 290.503906 L 310.492188 289.765625 L 314.316406 287.558594 L 337.515625 274.164062 L 338.722656 273.460938 L 338.722656 242.199219 L 364.519531 227.304688 L 365.796875 226.566406 L 365.796875 192.492188 L 364.519531 191.753906 " fill-opacity="0.6" fill-rule="nonzero"/></g></svg>
