<svg xmlns="http://www.w3.org/2000/svg" xmlns:xlink="http://www.w3.org/1999/xlink" width="500" zoomAndPan="magnify" viewBox="0 0 375 374.999991" height="500" preserveAspectRatio="xMidYMid meet" version="1.0"><defs><g/><clipPath id="2e88d15be8"><path d="M 87.878906 105.003906 L 287.167969 105.003906 L 287.167969 310.964844 L 87.878906 310.964844 Z M 87.878906 105.003906 " clip-rule="nonzero"/></clipPath><clipPath id="62563dbbc9"><path d="M 211.933594 125.59375 L 204.417969 112.550781 L 170.628906 112.550781 L 163.113281 125.59375 C 159.703125 125.234375 156.386719 125.917969 153.253906 127.640625 L 166.289062 105.003906 L 208.757812 105.003906 C 213.113281 112.535156 217.453125 120.097656 221.808594 127.640625 C 218.675781 125.917969 215.34375 125.234375 211.933594 125.59375 Z M 219.433594 255.816406 L 227.820312 270.335938 L 261.59375 270.335938 L 278.484375 241.054688 L 261.59375 211.773438 L 249.441406 211.773438 C 249.070312 209.210938 248.542969 206.679688 247.8125 204.195312 L 261.59375 204.195312 L 278.484375 174.914062 L 261.578125 145.621094 L 233.492188 145.621094 C 233.554688 143.601562 233.183594 141.582031 232.453125 139.65625 C 232.253906 139.113281 232.019531 138.585938 231.773438 138.074219 L 265.933594 138.074219 C 273.046875 150.339844 280.097656 162.636719 287.164062 174.914062 L 268.117188 207.984375 L 287.164062 241.054688 L 285.382812 244.144531 C 282.34375 249.390625 276.59375 259.265625 276.59375 259.3125 L 276.546875 259.480469 L 265.933594 277.894531 L 227.804688 277.894531 L 208.757812 310.964844 L 166.289062 310.964844 L 147.242188 277.894531 L 109.113281 277.894531 C 102.0625 265.597656 94.949219 253.332031 87.882812 241.054688 L 106.945312 207.984375 L 87.882812 174.914062 C 94.996094 162.652344 102.0625 150.371094 109.113281 138.074219 L 143.273438 138.074219 C 143.027344 138.585938 142.792969 139.113281 142.59375 139.65625 C 141.863281 141.582031 141.492188 143.601562 141.554688 145.621094 L 113.453125 145.621094 L 96.558594 174.914062 L 113.4375 204.195312 L 127.234375 204.195312 C 126.503906 206.679688 125.960938 209.210938 125.605469 211.773438 L 113.4375 211.773438 L 96.558594 241.054688 L 113.453125 270.335938 L 147.242188 270.335938 L 155.609375 255.816406 C 156.554688 258.859375 157.75 261.8125 159.207031 264.652344 L 153.75 274.121094 L 170.628906 303.402344 L 204.417969 303.402344 L 221.296875 274.121094 L 215.855469 264.667969 C 217.3125 261.8125 218.503906 258.859375 219.433594 255.816406 Z M 219.433594 255.816406 " clip-rule="evenodd"/></clipPath><clipPath id="0f65feaec3"><path d="M 128 128 L 247 128 L 247 287 L 128 287 Z M 128 128 " clip-rule="nonzero"/></clipPath><clipPath id="62b0329c3c"><path d="M 184.375 142.640625 C 185.414062 142.453125 186.453125 142.34375 187.523438 142.34375 C 188.578125 142.34375 189.632812 142.453125 190.652344 142.640625 C 191.613281 142.824219 192.542969 143.074219 193.460938 143.414062 C 194.574219 141.769531 196.402344 139.285156 198.773438 136.832031 C 201.519531 133.976562 204.992188 131.164062 208.863281 129.800781 C 212.785156 128.417969 217.09375 128.511719 221.496094 131.476562 C 222.425781 132.097656 223.371094 132.875 224.300781 133.773438 C 226.8125 136.195312 228.394531 138.601562 229.246094 140.867188 C 230.238281 143.523438 230.269531 145.992188 229.664062 148.105469 C 229.308594 149.390625 228.71875 150.542969 227.960938 151.535156 C 227.167969 152.574219 226.191406 153.445312 225.109375 154.097656 C 224.023438 154.765625 222.8125 155.199219 221.574219 155.402344 C 220.367188 155.585938 219.125 155.539062 217.917969 155.230469 C 216.226562 154.78125 214.660156 153.847656 213.421875 152.359375 C 212.320312 151.039062 211.484375 149.269531 211.082031 147.015625 C 210.894531 145.992188 211.160156 144.984375 211.703125 144.191406 C 212.242188 143.414062 213.097656 142.824219 214.121094 142.640625 C 215.140625 142.46875 216.148438 142.714844 216.941406 143.257812 C 217.730469 143.804688 218.304688 144.65625 218.488281 145.683594 C 218.613281 146.378906 218.816406 146.90625 219.03125 147.28125 C 219.265625 147.652344 219.542969 147.855469 219.808594 147.933594 C 220.007812 147.980469 220.242188 147.980469 220.472656 147.933594 C 220.722656 147.886719 220.96875 147.777344 221.21875 147.621094 L 221.25 147.621094 C 221.527344 147.453125 221.777344 147.234375 221.976562 146.96875 C 222.164062 146.707031 222.316406 146.410156 222.410156 146.070312 C 222.644531 145.246094 222.550781 144.207031 221.960938 142.964844 C 221.433594 141.847656 220.519531 140.589844 219.09375 139.207031 C 215.296875 135.542969 211.207031 136.539062 207.71875 138.960938 C 204.277344 141.367188 201.394531 145.152344 199.859375 147.375 C 200.292969 147.777344 200.710938 148.195312 201.132812 148.632812 C 201.613281 149.144531 202.0625 149.6875 202.496094 150.261719 C 204.324219 152.605469 205.78125 155.402344 206.773438 158.488281 C 207.734375 161.472656 208.277344 164.714844 208.277344 168.101562 L 208.277344 168.191406 C 209.609375 168.613281 210.957031 169.078125 212.273438 169.605469 C 214.507812 170.507812 216.707031 171.5625 218.847656 172.789062 C 220.984375 174 223.046875 175.367188 225.046875 176.886719 C 227 178.378906 228.875 180.023438 230.65625 181.792969 C 233.832031 184.992188 236.546875 188.46875 238.777344 192.132812 C 241.085938 195.921875 242.886719 199.894531 244.171875 203.964844 C 245.472656 208.125 246.234375 212.394531 246.449219 216.617188 C 246.667969 220.855469 246.339844 225.0625 245.441406 229.128906 C 245.289062 229.875 244.914062 230.527344 244.402344 231.023438 C 243.878906 231.535156 243.210938 231.894531 242.480469 232.03125 C 238.5 232.902344 234.375 233.230469 230.222656 233.042969 C 226.238281 232.839844 222.226562 232.15625 218.304688 230.992188 C 218.382812 231.941406 218.414062 233.042969 218.535156 233.972656 C 220.785156 272.351562 189.492188 286.324219 189.089844 286.511719 C 188.019531 286.992188 187.011719 286.945312 185.941406 286.496094 C 185.199219 286.167969 154.324219 272.164062 156.511719 234.066406 C 156.570312 233.042969 156.648438 232.019531 156.742188 230.992188 C 152.804688 232.15625 148.777344 232.839844 144.792969 233.042969 C 140.625 233.230469 136.484375 232.902344 132.488281 232.019531 C 131.742188 231.863281 131.09375 231.488281 130.597656 230.976562 C 130.085938 230.449219 129.726562 229.78125 129.589844 229.050781 C 128.703125 225 128.378906 220.808594 128.597656 216.585938 C 128.8125 212.363281 129.574219 208.125 130.875 203.964844 C 132.160156 199.894531 133.960938 195.921875 136.253906 192.132812 C 138.5 188.46875 141.210938 184.992188 144.390625 181.792969 C 146.171875 180.023438 148.046875 178.378906 150 176.886719 C 151.984375 175.367188 154.0625 174 156.199219 172.789062 C 158.355469 171.546875 160.585938 170.492188 162.832031 169.589844 C 164.136719 169.0625 165.453125 168.597656 166.769531 168.191406 L 166.769531 168.101562 C 166.769531 164.714844 167.296875 161.472656 168.257812 158.488281 C 169.265625 155.402344 170.722656 152.605469 172.535156 150.261719 C 172.984375 149.6875 173.433594 149.160156 173.914062 148.648438 C 174.316406 148.210938 174.738281 147.777344 175.171875 147.375 C 174.226562 145.976562 172.738281 143.972656 170.910156 142.078125 C 169.046875 140.140625 166.816406 138.324219 164.476562 137.40625 C 162.167969 136.507812 159.71875 136.476562 157.347656 138.089844 C 156.882812 138.398438 156.417969 138.773438 155.953125 139.207031 C 154.527344 140.589844 153.613281 141.847656 153.085938 142.964844 C 152.496094 144.207031 152.402344 145.246094 152.636719 146.070312 C 152.726562 146.410156 152.882812 146.707031 153.070312 146.96875 C 153.269531 147.234375 153.535156 147.46875 153.8125 147.621094 C 154.0625 147.777344 154.324219 147.886719 154.574219 147.933594 C 154.804688 147.980469 155.039062 147.980469 155.238281 147.933594 C 155.503906 147.855469 155.78125 147.652344 156 147.28125 C 156.230469 146.90625 156.433594 146.378906 156.554688 145.683594 C 156.742188 144.65625 157.316406 143.804688 158.105469 143.257812 C 158.898438 142.714844 159.902344 142.46875 160.910156 142.640625 C 161.933594 142.824219 162.785156 143.414062 163.34375 144.191406 C 163.886719 144.984375 164.136719 145.992188 163.964844 147.015625 C 163.5625 149.269531 162.726562 151.039062 161.625 152.359375 C 160.382812 153.847656 158.820312 154.78125 157.128906 155.230469 C 155.921875 155.539062 154.679688 155.585938 153.472656 155.402344 C 152.230469 155.199219 151.023438 154.765625 149.921875 154.097656 C 148.855469 153.445312 147.878906 152.574219 147.070312 151.535156 C 146.328125 150.542969 145.738281 149.390625 145.367188 148.105469 C 144.777344 145.992188 144.808594 143.523438 145.800781 140.867188 C 146.652344 138.601562 148.234375 136.195312 150.730469 133.773438 C 151.675781 132.875 152.621094 132.097656 153.550781 131.476562 C 157.953125 128.511719 162.261719 128.417969 166.164062 129.800781 C 170.039062 131.164062 173.511719 133.976562 176.269531 136.832031 C 178.625 139.285156 180.472656 141.769531 181.585938 143.414062 C 182.5 143.074219 183.429688 142.824219 184.375 142.640625 Z M 200.511719 164.871094 C 199.660156 165.492188 198.621094 165.863281 197.488281 165.863281 C 194.652344 165.863281 192.359375 163.550781 192.359375 160.710938 C 192.359375 158.023438 194.4375 155.804688 197.070312 155.585938 C 196.898438 155.339844 196.730469 155.105469 196.542969 154.871094 C 195.335938 153.304688 193.910156 152.046875 192.34375 151.191406 C 190.839844 150.371094 189.210938 149.921875 187.523438 149.921875 C 185.832031 149.921875 184.191406 150.371094 182.703125 151.191406 C 181.136719 152.046875 179.710938 153.304688 178.503906 154.871094 C 178.316406 155.105469 178.144531 155.339844 177.976562 155.585938 C 180.609375 155.804688 182.6875 158.023438 182.6875 160.710938 C 182.6875 163.550781 180.394531 165.863281 177.558594 165.863281 C 176.425781 165.863281 175.386719 165.492188 174.535156 164.871094 C 174.394531 165.925781 174.332031 166.996094 174.332031 168.101562 C 174.332031 169.328125 174.410156 170.539062 174.582031 171.703125 L 174.691406 172.324219 L 174.84375 173.144531 L 174.859375 173.175781 L 175.03125 173.953125 L 175.09375 174.203125 C 175.15625 174.464844 175.234375 174.730469 175.308594 174.992188 L 175.386719 175.210938 L 175.511719 175.613281 L 175.511719 175.628906 L 175.527344 175.644531 L 175.527344 175.660156 L 175.542969 175.691406 C 175.683594 176.082031 175.820312 176.453125 175.976562 176.855469 C 176.023438 176.964844 176.394531 177.804688 176.703125 178.472656 L 176.78125 178.609375 L 177 179.015625 L 177.109375 179.214844 C 177.589844 180.039062 178.039062 180.722656 178.550781 181.359375 C 179.015625 181.964844 179.542969 182.523438 180.160156 183.144531 L 180.269531 183.253906 C 180.5625 183.515625 180.859375 183.765625 181.167969 183.996094 L 181.339844 184.136719 L 181.355469 184.136719 L 181.386719 184.167969 L 181.402344 184.167969 L 181.402344 184.183594 L 181.417969 184.183594 C 181.648438 184.355469 181.867188 184.511719 182.097656 184.648438 L 182.113281 184.664062 L 182.144531 184.679688 L 182.160156 184.679688 L 182.207031 184.726562 L 182.222656 184.726562 L 182.238281 184.742188 L 182.253906 184.742188 L 182.269531 184.757812 L 182.285156 184.757812 L 182.300781 184.773438 L 182.546875 184.914062 L 182.546875 184.929688 L 182.5625 184.929688 L 182.703125 185.007812 C 183.167969 185.253906 183.648438 185.472656 184.144531 185.660156 L 184.207031 185.691406 L 184.222656 185.691406 L 184.253906 185.707031 L 184.285156 185.707031 L 184.285156 185.722656 L 184.316406 185.722656 L 184.332031 185.738281 L 184.363281 185.738281 L 184.390625 185.753906 L 184.421875 185.753906 L 184.4375 185.769531 L 184.46875 185.785156 L 184.5 185.785156 L 184.515625 185.800781 L 184.546875 185.800781 L 184.578125 185.816406 L 184.59375 185.816406 L 184.625 185.828125 L 184.65625 185.828125 L 184.65625 185.84375 L 184.6875 185.84375 C 185.601562 186.125 186.546875 186.28125 187.523438 186.28125 C 189.089844 186.28125 190.59375 185.890625 191.988281 185.195312 L 192.019531 185.179688 L 192.0625 185.148438 L 192.15625 185.101562 L 192.203125 185.085938 C 192.871094 184.726562 193.492188 184.308594 194.078125 183.84375 L 194.203125 183.734375 L 194.234375 183.71875 L 194.25 183.703125 L 194.265625 183.703125 L 194.28125 183.671875 L 194.34375 183.640625 L 194.359375 183.609375 L 194.375 183.59375 L 194.390625 183.59375 L 194.4375 183.546875 L 194.453125 183.546875 L 194.464844 183.53125 L 194.480469 183.5 L 194.511719 183.484375 L 194.574219 183.421875 L 194.589844 183.421875 L 194.621094 183.390625 L 194.636719 183.378906 L 194.636719 183.363281 L 194.667969 183.347656 L 194.683594 183.332031 L 194.714844 183.316406 L 194.714844 183.300781 L 194.746094 183.285156 L 194.761719 183.253906 L 194.777344 183.253906 L 194.839844 183.191406 L 194.871094 183.175781 L 194.886719 183.144531 L 194.902344 183.128906 L 194.917969 183.128906 L 194.933594 183.097656 L 194.960938 183.082031 L 194.960938 183.066406 L 194.992188 183.050781 L 195.101562 182.941406 L 195.117188 182.941406 L 195.132812 182.910156 L 195.257812 182.785156 L 195.273438 182.773438 L 195.304688 182.742188 L 195.335938 182.726562 L 195.351562 182.695312 L 195.414062 182.632812 L 195.425781 182.617188 L 195.535156 182.507812 L 195.535156 182.492188 L 195.566406 182.476562 L 195.582031 182.445312 L 195.675781 182.351562 L 195.878906 182.121094 C 196.417969 181.484375 196.898438 180.863281 197.332031 180.226562 L 197.363281 180.164062 L 197.457031 180.023438 L 197.472656 179.992188 L 197.488281 179.976562 L 197.519531 179.914062 L 197.535156 179.898438 L 197.550781 179.867188 L 197.582031 179.820312 L 197.582031 179.804688 L 197.613281 179.773438 L 197.644531 179.730469 L 197.644531 179.714844 L 197.753906 179.542969 L 197.769531 179.527344 L 197.859375 179.371094 L 197.859375 179.355469 L 197.875 179.308594 L 197.9375 179.214844 L 197.953125 179.183594 L 197.96875 179.167969 L 198 179.109375 L 198.015625 179.09375 L 198.03125 179.0625 L 198.046875 179.015625 L 198.0625 179 L 198.078125 178.953125 L 198.140625 178.859375 L 198.15625 178.8125 L 198.171875 178.796875 L 198.1875 178.75 L 198.21875 178.71875 L 198.21875 178.703125 L 198.25 178.640625 L 198.265625 178.625 C 198.746094 177.679688 199.164062 176.671875 199.535156 175.597656 L 199.550781 175.535156 L 199.613281 175.351562 L 199.984375 174.03125 L 200.046875 173.8125 L 200.1875 173.238281 L 200.214844 173.082031 L 200.355469 172.339844 L 200.355469 172.277344 L 200.464844 171.671875 C 200.636719 170.523438 200.710938 169.328125 200.710938 168.101562 C 200.710938 166.996094 200.652344 165.925781 200.511719 164.871094 Z M 207.316406 175.816406 C 207.160156 176.453125 206.972656 177.089844 206.773438 177.695312 C 206.601562 178.238281 206.417969 178.75 206.214844 179.277344 L 206.167969 179.417969 L 206.058594 179.699219 C 205.765625 180.394531 205.457031 181.09375 205.113281 181.777344 L 205.082031 181.839844 L 205.050781 181.886719 L 205.019531 181.949219 L 205.019531 181.964844 L 204.992188 182.011719 L 204.960938 182.074219 L 204.945312 182.089844 L 204.929688 182.136719 L 204.898438 182.195312 L 204.882812 182.226562 L 204.851562 182.257812 L 204.679688 182.601562 L 204.617188 182.695312 L 204.585938 182.757812 L 204.554688 182.816406 L 204.527344 182.863281 L 204.527344 182.878906 L 204.496094 182.941406 L 204.417969 183.050781 L 204.324219 183.238281 L 204.308594 183.238281 L 204.246094 183.363281 L 204.214844 183.40625 L 204.167969 183.46875 L 204.167969 183.484375 L 204.136719 183.53125 L 204.105469 183.59375 L 204.089844 183.609375 L 204.058594 183.65625 L 204.03125 183.71875 L 204 183.765625 L 203.96875 183.828125 L 203.953125 183.84375 L 203.890625 183.9375 L 203.875 183.96875 L 203.859375 183.996094 L 203.8125 184.058594 L 203.796875 184.089844 L 203.78125 184.105469 L 203.75 184.167969 L 203.71875 184.214844 L 203.703125 184.230469 L 203.640625 184.324219 L 203.59375 184.402344 L 203.566406 184.449219 L 203.519531 184.511719 L 203.488281 184.558594 L 203.457031 184.617188 L 203.410156 184.679688 L 203.332031 184.789062 L 203.332031 184.804688 L 203.300781 184.835938 C 202.757812 185.628906 202.167969 186.390625 201.535156 187.101562 L 201.316406 187.351562 C 200.945312 187.753906 200.574219 188.144531 200.1875 188.515625 L 200.109375 188.578125 L 200.078125 188.609375 L 200.046875 188.65625 L 200 188.6875 L 199.96875 188.71875 L 199.921875 188.75 L 199.890625 188.78125 L 199.875 188.8125 L 199.859375 188.828125 L 199.8125 188.859375 L 199.78125 188.886719 L 199.75 188.917969 L 199.707031 188.949219 L 199.566406 189.089844 L 199.550781 189.089844 L 199.457031 189.183594 L 199.441406 189.183594 L 199.378906 189.246094 L 199.332031 189.277344 L 199.300781 189.308594 L 199.253906 189.339844 C 198.21875 190.222656 197.117188 191 195.953125 191.636719 L 195.800781 191.730469 L 195.675781 191.792969 L 195.335938 191.960938 L 195.117188 192.085938 L 195.101562 192.070312 C 193.894531 192.675781 192.621094 193.125 191.304688 193.421875 L 191.304688 198.636719 C 192.421875 200.984375 193.675781 203.125 195.148438 205.269531 C 195.953125 206.433594 196.824219 207.566406 197.738281 208.667969 C 198.652344 209.753906 199.628906 210.824219 200.652344 211.851562 L 201.472656 212.65625 C 204.136719 215.203125 207.019531 217.378906 210.027344 219.179688 C 213.128906 221.027344 216.382812 222.484375 219.683594 223.523438 C 222.84375 224.519531 226.054688 225.15625 229.261719 225.402344 C 232.375 225.652344 235.492188 225.542969 238.53125 225.09375 C 238.980469 222.050781 239.089844 218.929688 238.839844 215.808594 C 238.59375 212.59375 237.957031 209.382812 236.964844 206.214844 C 235.878906 202.738281 234.328125 199.320312 232.347656 196.0625 C 230.410156 192.910156 228.066406 189.914062 225.308594 187.148438 C 223.757812 185.582031 222.132812 184.167969 220.441406 182.878906 C 218.722656 181.5625 216.941406 180.378906 215.125 179.339844 C 213.808594 178.59375 212.476562 177.914062 211.128906 177.304688 C 209.871094 176.746094 208.601562 176.25 207.316406 175.816406 Z M 183.742188 193.421875 C 182.222656 193.082031 180.75 192.519531 179.371094 191.792969 C 178.859375 191.527344 178.347656 191.234375 177.867188 190.90625 L 177.835938 190.890625 C 177.355469 190.582031 176.890625 190.238281 176.441406 189.882812 L 176.425781 189.867188 C 176.253906 189.742188 176.085938 189.601562 175.914062 189.464844 L 175.867188 189.417969 L 175.835938 189.402344 L 175.773438 189.339844 L 175.574219 189.167969 L 175.417969 189.027344 C 174.644531 188.34375 173.945312 187.617188 173.28125 186.839844 L 173.265625 186.808594 L 173.171875 186.714844 L 173.140625 186.667969 L 173.09375 186.621094 L 173.0625 186.574219 L 173.015625 186.527344 L 173 186.496094 L 172.984375 186.480469 L 172.953125 186.433594 L 172.90625 186.390625 L 172.800781 186.25 L 172.753906 186.203125 L 172.722656 186.15625 L 172.535156 185.9375 C 171.945312 185.179688 171.40625 184.371094 170.894531 183.515625 L 170.878906 183.484375 L 170.863281 183.46875 L 170.832031 183.421875 L 170.738281 183.269531 L 170.722656 183.238281 L 170.582031 183.003906 L 170.414062 182.710938 L 170.429688 182.710938 L 170.195312 182.289062 L 170.195312 182.273438 L 170.179688 182.242188 L 170.164062 182.226562 L 170.148438 182.195312 L 170.148438 182.179688 L 170.132812 182.167969 L 170.117188 182.136719 L 170.101562 182.121094 L 170.101562 182.089844 L 170.085938 182.074219 L 170.070312 182.042969 L 170.054688 182.027344 L 170.054688 182.011719 L 170.039062 181.980469 L 170.023438 181.964844 L 170.007812 181.933594 L 170.007812 181.917969 L 169.992188 181.886719 L 169.976562 181.871094 L 169.964844 181.855469 L 169.964844 181.824219 L 169.949219 181.808594 L 169.933594 181.777344 L 169.933594 181.761719 L 169.917969 181.730469 L 169.902344 181.714844 L 169.902344 181.699219 L 169.886719 181.683594 L 169.839844 181.605469 L 169.839844 181.574219 L 169.824219 181.5625 L 169.808594 181.515625 L 169.792969 181.484375 L 169.777344 181.46875 L 169.761719 181.4375 L 169.761719 181.421875 L 169.746094 181.390625 L 169.730469 181.375 L 169.730469 181.359375 L 169.714844 181.328125 L 169.699219 181.3125 L 169.683594 181.28125 L 169.683594 181.25 L 169.667969 181.234375 L 169.605469 181.109375 L 169.605469 181.078125 L 169.574219 181.046875 L 169.574219 181.03125 L 169.542969 180.96875 L 169.527344 180.941406 L 169.511719 180.925781 L 169.511719 180.894531 L 169.496094 180.863281 L 169.484375 180.832031 L 169.46875 180.816406 L 169.390625 180.644531 L 169.375 180.613281 L 169.375 180.582031 L 169.359375 180.550781 L 169.34375 180.535156 L 169.3125 180.472656 L 169.3125 180.441406 L 169.296875 180.410156 L 169.28125 180.394531 L 169.265625 180.363281 L 169.265625 180.335938 L 169.25 180.304688 L 169.234375 180.289062 L 169.21875 180.257812 L 169.21875 180.226562 L 169.203125 180.226562 L 169.203125 180.195312 L 169.1875 180.164062 L 169.15625 180.117188 L 169.15625 180.101562 C 169.078125 179.898438 168.988281 179.714844 168.910156 179.511719 L 168.785156 179.183594 L 168.613281 178.71875 L 168.613281 178.703125 L 168.597656 178.703125 L 168.582031 178.640625 L 168.582031 178.609375 L 168.566406 178.59375 L 168.550781 178.5625 L 168.550781 178.53125 L 168.535156 178.503906 L 168.523438 178.472656 L 168.523438 178.457031 L 168.492188 178.394531 L 168.492188 178.363281 L 168.476562 178.347656 L 168.476562 178.316406 L 168.460938 178.285156 L 168.460938 178.269531 L 168.445312 178.253906 L 168.445312 178.222656 L 168.257812 177.695312 C 168.054688 177.089844 167.886719 176.453125 167.714844 175.816406 C 166.445312 176.25 165.171875 176.746094 163.917969 177.304688 C 162.570312 177.914062 161.222656 178.59375 159.917969 179.339844 C 158.089844 180.378906 156.324219 181.5625 154.605469 182.878906 C 152.914062 184.167969 151.285156 185.582031 149.738281 187.148438 C 146.976562 189.914062 144.621094 192.910156 142.699219 196.0625 C 140.714844 199.320312 139.167969 202.738281 138.082031 206.214844 C 137.089844 209.382812 136.453125 212.59375 136.207031 215.808594 C 135.957031 218.929688 136.050781 222.050781 136.515625 225.09375 C 139.554688 225.542969 142.652344 225.652344 145.785156 225.402344 C 148.976562 225.15625 152.203125 224.519531 155.363281 223.523438 C 158.507812 222.53125 161.59375 221.164062 164.554688 219.441406 C 167.453125 217.765625 170.210938 215.746094 172.785156 213.386719 C 173.339844 212.875 173.851562 212.378906 174.394531 211.851562 C 175.417969 210.824219 176.394531 209.753906 177.308594 208.667969 C 178.222656 207.566406 179.09375 206.433594 179.898438 205.269531 C 181.355469 203.1875 182.65625 200.9375 183.742188 198.636719 Z M 210.292969 227.886719 L 209.035156 227.265625 C 207.5625 227.808594 206.042969 228.308594 204.480469 228.757812 C 202.882812 229.191406 201.238281 229.582031 199.550781 229.90625 C 197.613281 230.277344 195.613281 230.558594 193.582031 230.761719 C 191.582031 230.945312 189.554688 231.039062 187.523438 231.039062 C 185.492188 231.039062 183.460938 230.945312 181.464844 230.761719 C 179.433594 230.558594 177.433594 230.277344 175.496094 229.90625 C 173.808594 229.597656 172.148438 229.191406 170.566406 228.757812 C 169.003906 228.308594 167.484375 227.808594 166.011719 227.265625 L 164.738281 227.886719 C 164.523438 229.332031 164.351562 230.792969 164.199219 232.25 C 165.746094 232.839844 167.328125 233.382812 168.941406 233.851562 C 170.613281 234.347656 172.351562 234.765625 174.117188 235.121094 C 176.238281 235.558594 178.441406 235.898438 180.703125 236.117188 C 182.90625 236.332031 185.183594 236.441406 187.523438 236.441406 C 189.863281 236.441406 192.140625 236.332031 194.34375 236.117188 C 196.605469 235.898438 198.804688 235.558594 200.929688 235.121094 C 202.695312 234.765625 204.433594 234.347656 206.105469 233.851562 C 207.71875 233.382812 209.300781 232.839844 210.847656 232.25 C 210.695312 230.792969 210.523438 229.332031 210.292969 227.886719 Z M 200.695312 221.941406 C 200.203125 221.570312 199.722656 221.179688 199.253906 220.792969 C 198.621094 220.265625 197.96875 219.707031 197.320312 219.117188 C 196.714844 218.652344 195.878906 217.765625 195.320312 217.207031 C 194.140625 216.011719 193.011719 214.785156 191.957031 213.527344 C 190.886719 212.238281 189.878906 210.917969 188.949219 209.582031 L 188.066406 208.28125 L 187.523438 207.410156 L 186.980469 208.265625 C 186.703125 208.699219 186.40625 209.132812 186.097656 209.582031 C 185.167969 210.917969 184.160156 212.238281 183.089844 213.527344 C 182.019531 214.785156 180.90625 216.011719 179.726562 217.207031 C 179.339844 217.578125 178.953125 217.953125 178.566406 218.339844 C 177.789062 219.054688 177.015625 219.753906 176.222656 220.4375 C 175.605469 220.949219 174.984375 221.445312 174.347656 221.941406 L 175.261719 222.160156 C 175.789062 222.285156 176.332031 222.390625 176.875 222.5 C 178.582031 222.8125 180.332031 223.058594 182.113281 223.230469 C 183.867188 223.386719 185.664062 223.480469 187.523438 223.480469 C 189.382812 223.480469 191.179688 223.386719 192.933594 223.230469 C 194.714844 223.058594 196.464844 222.8125 198.15625 222.5 C 198.714844 222.390625 199.253906 222.269531 199.796875 222.160156 Z M 199.519531 269.214844 L 198.265625 269.355469 C 196.464844 269.558594 194.667969 269.699219 192.871094 269.789062 C 191.074219 269.898438 189.289062 269.945312 187.523438 269.945312 C 185.757812 269.945312 183.972656 269.898438 182.175781 269.789062 C 180.378906 269.699219 178.582031 269.558594 176.78125 269.355469 L 175.527344 269.214844 C 177.339844 271.25 179.183594 272.957031 180.90625 274.355469 C 183.632812 276.574219 186.035156 278.050781 187.523438 278.855469 C 189.011719 278.050781 191.414062 276.574219 194.140625 274.355469 C 195.847656 272.957031 197.707031 271.25 199.519531 269.214844 Z M 211.050781 240.199219 C 209.734375 240.648438 208.382812 241.054688 207.035156 241.425781 C 205.515625 241.828125 203.984375 242.203125 202.402344 242.511719 C 200 243.007812 197.519531 243.382812 195.007812 243.628906 C 192.542969 243.878906 190.035156 244.003906 187.523438 244.003906 C 185.011719 244.003906 182.5 243.878906 180.039062 243.628906 C 177.527344 243.382812 175.046875 243.007812 172.628906 242.511719 C 171.046875 242.203125 169.511719 241.828125 168.011719 241.425781 C 166.644531 241.054688 165.296875 240.632812 163.996094 240.199219 C 164.027344 241.160156 164.105469 242.125 164.199219 243.054688 C 164.289062 244.066406 164.429688 245.058594 164.570312 246.035156 C 166.179688 246.535156 167.824219 246.96875 169.484375 247.355469 C 171.203125 247.761719 172.9375 248.117188 174.691406 248.398438 C 176.75 248.722656 178.859375 248.988281 181.027344 249.15625 C 183.136719 249.328125 185.308594 249.40625 187.523438 249.40625 C 189.722656 249.40625 191.894531 249.328125 194.015625 249.15625 C 196.1875 248.988281 198.292969 248.722656 200.355469 248.398438 C 202.109375 248.117188 203.84375 247.761719 205.5625 247.355469 C 207.222656 246.96875 208.863281 246.535156 210.460938 246.035156 C 210.617188 245.042969 210.757812 244.035156 210.847656 243.007812 C 210.941406 242.09375 211.003906 241.160156 211.050781 240.199219 Z M 208.324219 254.453125 C 207.316406 254.699219 206.308594 254.933594 205.269531 255.148438 C 204.046875 255.398438 202.804688 255.632812 201.535156 255.847656 C 199.226562 256.222656 196.882812 256.5 194.542969 256.6875 C 192.21875 256.875 189.878906 256.980469 187.523438 256.980469 C 185.167969 256.980469 182.828125 256.875 180.503906 256.6875 C 178.144531 256.5 175.820312 256.222656 173.511719 255.847656 C 172.242188 255.632812 170.984375 255.398438 169.777344 255.148438 C 168.738281 254.933594 167.730469 254.699219 166.722656 254.453125 C 167.019531 255.242188 167.3125 256.019531 167.636719 256.796875 C 167.933594 257.496094 168.242188 258.164062 168.550781 258.8125 C 168.847656 259.417969 169.15625 260.023438 169.484375 260.613281 C 170.800781 260.878906 172.117188 261.113281 173.449219 261.3125 C 174.84375 261.53125 176.222656 261.703125 177.589844 261.855469 C 179.183594 262.027344 180.828125 262.167969 182.5 262.246094 C 184.128906 262.339844 185.804688 262.371094 187.523438 262.371094 C 189.242188 262.371094 190.917969 262.339844 192.542969 262.246094 C 194.21875 262.167969 195.847656 262.027344 197.457031 261.855469 C 198.851562 261.703125 200.214844 261.53125 201.597656 261.3125 C 202.914062 261.113281 204.246094 260.878906 205.5625 260.613281 C 205.96875 259.871094 206.339844 259.125 206.710938 258.347656 C 207.082031 257.558594 207.4375 256.734375 207.78125 255.878906 Z M 208.324219 254.453125 " clip-rule="evenodd"/></clipPath></defs><rect x="-37.5" width="450" fill="#ffffff" y="-37.499999" height="449.999989" fill-opacity="1"/><rect x="-37.5" width="450" fill="#ffffff" y="-37.499999" height="449.999989" fill-opacity="1"/><rect x="-37.5" width="450" fill="#d8ffd7" y="-37.499999" height="449.999989" fill-opacity="1"/><g fill="#93cf90" fill-opacity="0.302"><g transform="translate(61.608585, 130.91494)"><g><path d="M 19.609375 -18.46875 L 2.796875 -2.640625 L -20.875 -27.765625 L -4.0625 -43.59375 C 2.800781 -50.070312 8.644531 -53.765625 13.46875 -54.671875 C 17.363281 -55.398438 20.742188 -54.585938 23.609375 -52.234375 C 24.835938 -51.222656 25.957031 -50.179688 26.96875 -49.109375 C 27.976562 -48.046875 28.953125 -46.863281 29.890625 -45.5625 C 30.835938 -44.269531 31.507812 -42.78125 31.90625 -41.09375 C 32.3125 -39.40625 32.238281 -37.476562 31.6875 -35.3125 C 31.144531 -33.15625 29.925781 -30.6875 28.03125 -27.90625 C 26.144531 -25.132812 23.335938 -21.988281 19.609375 -18.46875 Z M 12.765625 -23.734375 C 18.109375 -28.773438 19.859375 -32.984375 18.015625 -36.359375 C 17.484375 -37.285156 16.859375 -38.128906 16.140625 -38.890625 C 15.421875 -39.660156 14.609375 -40.332031 13.703125 -40.90625 C 12.796875 -41.488281 11.742188 -41.789062 10.546875 -41.8125 C 9.347656 -41.832031 7.953125 -41.4375 6.359375 -40.625 C 4.765625 -39.820312 2.910156 -38.425781 0.796875 -36.4375 L -4.46875 -31.46875 L 7.5 -18.765625 Z M 12.765625 -23.734375 "/></g></g></g><g fill="#93cf90" fill-opacity="0.302"><g transform="translate(98.639043, 95.946982)"><g><path d="M 40.8125 -19.90625 L 3.453125 -1.6875 L -11.671875 -32.703125 L 23.96875 -50.09375 L 27.703125 -42.421875 L 5.078125 -31.375 L 7.453125 -26.515625 L 26.578125 -35.84375 L 29.484375 -29.875 L 10.359375 -20.546875 L 12.734375 -15.703125 L 37.078125 -27.578125 Z M 40.8125 -19.90625 "/></g></g></g><g fill="#93cf90" fill-opacity="0.302"><g transform="translate(137.378138, 76.430598)"><g><path d="M 44.703125 -7.921875 L 3.78125 -0.671875 L -2.234375 -34.65625 L 36.8125 -41.5625 L 38.296875 -33.15625 L 13.515625 -28.78125 L 14.46875 -23.453125 L 35.421875 -27.15625 L 36.578125 -20.609375 L 15.625 -16.90625 L 16.5625 -11.609375 L 43.21875 -16.328125 Z M 44.703125 -7.921875 "/></g></g></g><g fill="#93cf90" fill-opacity="0.302"><g transform="translate(181.384218, 69.938365)"><g/></g></g><g fill="#93cf90" fill-opacity="0.302"><g transform="translate(190.977563, 67.523592)"><g><path d="M 28.03125 5.640625 L 3.765625 0.765625 L 10.5625 -33.046875 L 35.34375 -28.0625 C 39.75 -27.175781 43.332031 -26.242188 46.09375 -25.265625 C 48.863281 -24.296875 50.929688 -23.226562 52.296875 -22.0625 C 53.671875 -20.894531 54.5 -19.597656 54.78125 -18.171875 C 55.0625 -16.742188 55.015625 -15.109375 54.640625 -13.265625 C 54.304688 -11.835938 53.664062 -10.722656 52.71875 -9.921875 C 51.78125 -9.117188 50.769531 -8.582031 49.6875 -8.3125 C 48.601562 -8.050781 47.679688 -8 46.921875 -8.15625 C 47.660156 -8 48.492188 -7.675781 49.421875 -7.1875 C 50.359375 -6.695312 51.238281 -6.082031 52.0625 -5.34375 C 52.882812 -4.613281 53.523438 -3.789062 53.984375 -2.875 C 54.453125 -1.96875 54.582031 -1.007812 54.375 0 C 54.113281 1.320312 53.71875 2.5 53.1875 3.53125 C 52.65625 4.570312 51.847656 5.425781 50.765625 6.09375 C 49.679688 6.757812 48.179688 7.203125 46.265625 7.421875 C 44.359375 7.648438 41.921875 7.625 38.953125 7.34375 C 35.992188 7.070312 32.351562 6.503906 28.03125 5.640625 Z M 31.21875 -14.328125 C 33.289062 -13.910156 34.914062 -13.6875 36.09375 -13.65625 C 37.28125 -13.632812 38.132812 -13.785156 38.65625 -14.109375 C 39.175781 -14.429688 39.503906 -14.921875 39.640625 -15.578125 C 39.765625 -16.234375 39.648438 -16.8125 39.296875 -17.3125 C 38.941406 -17.820312 38.210938 -18.285156 37.109375 -18.703125 C 36.015625 -19.128906 34.429688 -19.550781 32.359375 -19.96875 L 23.09375 -21.84375 L 21.953125 -16.203125 Z M 28.90625 -2.859375 C 31.019531 -2.429688 32.75 -2.140625 34.09375 -1.984375 C 35.445312 -1.828125 36.46875 -1.882812 37.15625 -2.15625 C 37.851562 -2.425781 38.289062 -3.007812 38.46875 -3.90625 C 38.644531 -4.78125 38.460938 -5.472656 37.921875 -5.984375 C 37.390625 -6.503906 36.472656 -6.945312 35.171875 -7.3125 C 33.867188 -7.6875 32.160156 -8.085938 30.046875 -8.515625 L 20.78125 -10.390625 L 19.640625 -4.734375 Z M 28.90625 -2.859375 "/></g></g></g><g fill="#93cf90" fill-opacity="0.302"><g transform="translate(240.920738, 77.514612)"><g><path d="M 39.84375 21.78125 L 3.375 1.84375 L 19.9375 -28.4375 L 54.734375 -9.40625 L 50.625 -1.90625 L 28.53125 -13.984375 L 25.9375 -9.25 L 44.609375 0.953125 L 41.421875 6.78125 L 22.75 -3.421875 L 20.171875 1.3125 L 43.9375 14.296875 Z M 39.84375 21.78125 "/></g></g></g><g fill="#93cf90" fill-opacity="0.302"><g transform="translate(279.242737, 97.83777)"><g><path d="M 32.3125 31.90625 L 2.734375 2.703125 L 26.984375 -21.859375 L 55.203125 6 L 49.203125 12.078125 L 31.296875 -5.609375 L 27.5 -1.75 L 42.640625 13.203125 L 37.96875 17.921875 L 22.828125 2.96875 L 19.046875 6.796875 L 38.3125 25.828125 Z M 32.3125 31.90625 "/></g></g></g><g fill="#73b270" fill-opacity="1"><g transform="translate(61.608585, 124.756934)"><g><path d="M 19.609375 -18.46875 L 2.796875 -2.640625 L -20.875 -27.765625 L -4.0625 -43.59375 C 2.800781 -50.070312 8.644531 -53.765625 13.46875 -54.671875 C 17.363281 -55.398438 20.742188 -54.585938 23.609375 -52.234375 C 24.835938 -51.222656 25.957031 -50.179688 26.96875 -49.109375 C 27.976562 -48.046875 28.953125 -46.863281 29.890625 -45.5625 C 30.835938 -44.269531 31.507812 -42.78125 31.90625 -41.09375 C 32.3125 -39.40625 32.238281 -37.476562 31.6875 -35.3125 C 31.144531 -33.15625 29.925781 -30.6875 28.03125 -27.90625 C 26.144531 -25.132812 23.335938 -21.988281 19.609375 -18.46875 Z M 12.765625 -23.734375 C 18.109375 -28.773438 19.859375 -32.984375 18.015625 -36.359375 C 17.484375 -37.285156 16.859375 -38.128906 16.140625 -38.890625 C 15.421875 -39.660156 14.609375 -40.332031 13.703125 -40.90625 C 12.796875 -41.488281 11.742188 -41.789062 10.546875 -41.8125 C 9.347656 -41.832031 7.953125 -41.4375 6.359375 -40.625 C 4.765625 -39.820312 2.910156 -38.425781 0.796875 -36.4375 L -4.46875 -31.46875 L 7.5 -18.765625 Z M 12.765625 -23.734375 "/></g></g></g><g fill="#73b270" fill-opacity="1"><g transform="translate(98.639043, 89.788981)"><g><path d="M 40.8125 -19.90625 L 3.453125 -1.6875 L -11.671875 -32.703125 L 23.96875 -50.09375 L 27.703125 -42.421875 L 5.078125 -31.375 L 7.453125 -26.515625 L 26.578125 -35.84375 L 29.484375 -29.875 L 10.359375 -20.546875 L 12.734375 -15.703125 L 37.078125 -27.578125 Z M 40.8125 -19.90625 "/></g></g></g><g fill="#73b270" fill-opacity="1"><g transform="translate(137.378138, 70.272597)"><g><path d="M 44.703125 -7.921875 L 3.78125 -0.671875 L -2.234375 -34.65625 L 36.8125 -41.5625 L 38.296875 -33.15625 L 13.515625 -28.78125 L 14.46875 -23.453125 L 35.421875 -27.15625 L 36.578125 -20.609375 L 15.625 -16.90625 L 16.5625 -11.609375 L 43.21875 -16.328125 Z M 44.703125 -7.921875 "/></g></g></g><g fill="#73b270" fill-opacity="1"><g transform="translate(181.384218, 63.780361)"><g/></g></g><g fill="#73b270" fill-opacity="1"><g transform="translate(190.977563, 61.365588)"><g><path d="M 28.03125 5.640625 L 3.765625 0.765625 L 10.5625 -33.046875 L 35.34375 -28.0625 C 39.75 -27.175781 43.332031 -26.242188 46.09375 -25.265625 C 48.863281 -24.296875 50.929688 -23.226562 52.296875 -22.0625 C 53.671875 -20.894531 54.5 -19.597656 54.78125 -18.171875 C 55.0625 -16.742188 55.015625 -15.109375 54.640625 -13.265625 C 54.304688 -11.835938 53.664062 -10.722656 52.71875 -9.921875 C 51.78125 -9.117188 50.769531 -8.582031 49.6875 -8.3125 C 48.601562 -8.050781 47.679688 -8 46.921875 -8.15625 C 47.660156 -8 48.492188 -7.675781 49.421875 -7.1875 C 50.359375 -6.695312 51.238281 -6.082031 52.0625 -5.34375 C 52.882812 -4.613281 53.523438 -3.789062 53.984375 -2.875 C 54.453125 -1.96875 54.582031 -1.007812 54.375 0 C 54.113281 1.320312 53.71875 2.5 53.1875 3.53125 C 52.65625 4.570312 51.847656 5.425781 50.765625 6.09375 C 49.679688 6.757812 48.179688 7.203125 46.265625 7.421875 C 44.359375 7.648438 41.921875 7.625 38.953125 7.34375 C 35.992188 7.070312 32.351562 6.503906 28.03125 5.640625 Z M 31.21875 -14.328125 C 33.289062 -13.910156 34.914062 -13.6875 36.09375 -13.65625 C 37.28125 -13.632812 38.132812 -13.785156 38.65625 -14.109375 C 39.175781 -14.429688 39.503906 -14.921875 39.640625 -15.578125 C 39.765625 -16.234375 39.648438 -16.8125 39.296875 -17.3125 C 38.941406 -17.820312 38.210938 -18.285156 37.109375 -18.703125 C 36.015625 -19.128906 34.429688 -19.550781 32.359375 -19.96875 L 23.09375 -21.84375 L 21.953125 -16.203125 Z M 28.90625 -2.859375 C 31.019531 -2.429688 32.75 -2.140625 34.09375 -1.984375 C 35.445312 -1.828125 36.46875 -1.882812 37.15625 -2.15625 C 37.851562 -2.425781 38.289062 -3.007812 38.46875 -3.90625 C 38.644531 -4.78125 38.460938 -5.472656 37.921875 -5.984375 C 37.390625 -6.503906 36.472656 -6.945312 35.171875 -7.3125 C 33.867188 -7.6875 32.160156 -8.085938 30.046875 -8.515625 L 20.78125 -10.390625 L 19.640625 -4.734375 Z M 28.90625 -2.859375 "/></g></g></g><g fill="#73b270" fill-opacity="1"><g transform="translate(240.920738, 71.356611)"><g><path d="M 39.84375 21.78125 L 3.375 1.84375 L 19.9375 -28.4375 L 54.734375 -9.40625 L 50.625 -1.90625 L 28.53125 -13.984375 L 25.9375 -9.25 L 44.609375 0.953125 L 41.421875 6.78125 L 22.75 -3.421875 L 20.171875 1.3125 L 43.9375 14.296875 Z M 39.84375 21.78125 "/></g></g></g><g fill="#73b270" fill-opacity="1"><g transform="translate(279.242737, 91.679768)"><g><path d="M 32.3125 31.90625 L 2.734375 2.703125 L 26.984375 -21.859375 L 55.203125 6 L 49.203125 12.078125 L 31.296875 -5.609375 L 27.5 -1.75 L 42.640625 13.203125 L 37.96875 17.921875 L 22.828125 2.96875 L 19.046875 6.796875 L 38.3125 25.828125 Z M 32.3125 31.90625 "/></g></g></g><g clip-path="url(#2e88d15be8)"><g clip-path="url(#62563dbbc9)"><path fill="#ffde59" d="M 87.882812 105.003906 L 87.882812 310.964844 L 287.164062 310.964844 L 287.164062 105.003906 Z M 87.882812 105.003906 " fill-opacity="1" fill-rule="nonzero"/></g></g><g clip-path="url(#0f65feaec3)"><g clip-path="url(#62b0329c3c)"><path fill="#ffde59" d="M 128.378906 128.417969 L 128.378906 286.992188 L 246.667969 286.992188 L 246.667969 128.417969 Z M 128.378906 128.417969 " fill-opacity="1" fill-rule="nonzero"/></g></g><path fill="#73b270" d="M 173.28125 186.839844 C 173.945312 187.617188 174.644531 188.34375 175.417969 189.027344 L 175.574219 189.167969 L 175.773438 189.339844 L 175.835938 189.402344 L 175.867188 189.417969 L 175.914062 189.464844 C 176.085938 189.601562 176.253906 189.742188 176.425781 189.867188 L 176.441406 189.882812 C 176.890625 190.238281 177.355469 190.582031 177.835938 190.890625 L 177.867188 190.90625 C 178.347656 191.234375 178.859375 191.527344 179.371094 191.792969 C 180.75 192.519531 182.222656 193.082031 183.742188 193.421875 L 183.742188 198.636719 C 182.65625 200.9375 181.355469 203.1875 179.898438 205.269531 C 179.09375 206.433594 178.222656 207.566406 177.308594 208.667969 C 176.394531 209.753906 175.417969 210.824219 174.394531 211.851562 C 173.851562 212.378906 173.339844 212.875 172.785156 213.386719 C 170.210938 215.746094 167.453125 217.765625 164.554688 219.441406 C 161.59375 221.164062 158.507812 222.53125 155.363281 223.523438 C 152.203125 224.519531 148.976562 225.15625 145.785156 225.402344 C 142.652344 225.652344 139.554688 225.542969 136.515625 225.09375 C 136.050781 222.050781 135.957031 218.929688 136.207031 215.808594 C 136.453125 212.59375 137.089844 209.382812 138.082031 206.214844 C 139.167969 202.738281 140.714844 199.320312 142.699219 196.0625 C 144.621094 192.910156 146.976562 189.914062 149.738281 187.148438 C 151.285156 185.582031 152.914062 184.167969 154.605469 182.878906 C 156.324219 181.5625 158.089844 180.378906 159.917969 179.339844 C 161.222656 178.59375 162.570312 177.914062 163.917969 177.304688 C 165.171875 176.746094 166.445312 176.25 167.714844 175.816406 C 167.886719 176.453125 168.054688 177.089844 168.257812 177.695312 L 168.445312 178.222656 L 168.445312 178.253906 L 168.460938 178.269531 L 168.460938 178.285156 L 168.476562 178.316406 L 168.476562 178.347656 L 168.492188 178.363281 L 168.492188 178.394531 L 168.523438 178.457031 L 168.523438 178.472656 L 168.535156 178.503906 L 168.550781 178.53125 L 168.550781 178.5625 L 168.566406 178.59375 L 168.582031 178.609375 L 168.582031 178.640625 L 168.597656 178.703125 L 168.613281 178.703125 L 168.613281 178.71875 L 168.785156 179.183594 L 168.910156 179.511719 C 168.988281 179.714844 169.078125 179.898438 169.15625 180.101562 L 169.15625 180.117188 L 169.1875 180.164062 L 169.203125 180.195312 L 169.203125 180.226562 L 169.21875 180.226562 L 169.21875 180.257812 L 169.234375 180.289062 L 169.25 180.304688 L 169.265625 180.335938 L 169.265625 180.363281 L 169.28125 180.394531 L 169.296875 180.410156 L 169.3125 180.441406 L 169.3125 180.472656 L 169.34375 180.535156 L 169.359375 180.550781 L 169.375 180.582031 L 169.375 180.613281 L 169.390625 180.644531 L 169.46875 180.816406 L 169.484375 180.832031 L 169.496094 180.863281 L 169.511719 180.894531 L 169.511719 180.925781 L 169.527344 180.941406 L 169.542969 180.96875 L 169.574219 181.03125 L 169.574219 181.046875 L 169.605469 181.078125 L 169.605469 181.109375 L 169.667969 181.234375 L 169.683594 181.25 L 169.683594 181.28125 L 169.699219 181.3125 L 169.714844 181.328125 L 169.730469 181.359375 L 169.730469 181.375 L 169.746094 181.390625 L 169.761719 181.421875 L 169.761719 181.4375 L 169.777344 181.46875 L 169.792969 181.484375 L 169.808594 181.515625 L 169.824219 181.5625 L 169.839844 181.574219 L 169.839844 181.605469 L 169.886719 181.683594 L 169.902344 181.699219 L 169.902344 181.714844 L 169.917969 181.730469 L 169.933594 181.761719 L 169.933594 181.777344 L 169.949219 181.808594 L 169.964844 181.824219 L 169.964844 181.855469 L 169.976562 181.871094 L 169.992188 181.886719 L 170.007812 181.917969 L 170.007812 181.933594 L 170.023438 181.964844 L 170.039062 181.980469 L 170.054688 182.011719 L 170.054688 182.027344 L 170.070312 182.042969 L 170.085938 182.074219 L 170.101562 182.089844 L 170.101562 182.121094 L 170.117188 182.136719 L 170.132812 182.167969 L 170.148438 182.179688 L 170.148438 182.195312 L 170.164062 182.226562 L 170.179688 182.242188 L 170.195312 182.273438 L 170.195312 182.289062 L 170.429688 182.710938 L 170.414062 182.710938 L 170.582031 183.003906 L 170.722656 183.238281 L 170.738281 183.269531 L 170.832031 183.421875 L 170.863281 183.46875 L 170.878906 183.484375 L 170.894531 183.515625 C 171.40625 184.371094 171.945312 185.179688 172.535156 185.9375 L 172.722656 186.15625 L 172.753906 186.203125 L 172.800781 186.25 L 172.90625 186.390625 L 172.953125 186.433594 L 172.984375 186.480469 L 173 186.496094 L 173.015625 186.527344 L 173.0625 186.574219 L 173.09375 186.621094 L 173.140625 186.667969 L 173.171875 186.714844 L 173.265625 186.808594 Z M 144.390625 181.792969 C 141.210938 184.992188 138.5 188.46875 136.253906 192.132812 C 133.960938 195.921875 132.160156 199.894531 130.875 203.964844 C 129.574219 208.125 128.8125 212.363281 128.597656 216.585938 C 128.378906 220.808594 128.703125 225 129.589844 229.050781 C 129.726562 229.78125 130.085938 230.449219 130.597656 230.976562 C 131.09375 231.488281 131.742188 231.863281 132.488281 232.019531 C 136.484375 232.902344 140.625 233.230469 144.792969 233.042969 C 148.777344 232.839844 152.804688 232.15625 156.742188 230.992188 C 156.648438 232.019531 156.570312 233.042969 156.511719 234.066406 C 154.324219 272.164062 185.199219 286.167969 185.941406 286.496094 C 187.011719 286.945312 188.019531 286.992188 189.089844 286.511719 C 189.492188 286.324219 220.785156 272.351562 218.535156 233.972656 C 218.414062 233.042969 218.382812 231.941406 218.304688 230.992188 C 222.226562 232.15625 226.238281 232.839844 230.222656 233.042969 C 234.375 233.230469 238.5 232.902344 242.480469 232.03125 C 243.210938 231.894531 243.878906 231.535156 244.402344 231.023438 C 244.914062 230.527344 245.289062 229.875 245.441406 229.128906 C 246.339844 225.0625 246.667969 220.855469 246.449219 216.617188 C 246.234375 212.394531 245.472656 208.125 244.171875 203.964844 C 242.886719 199.894531 241.085938 195.921875 238.777344 192.132812 C 236.546875 188.46875 233.832031 184.992188 230.65625 181.792969 C 228.875 180.023438 227 178.378906 225.046875 176.886719 C 223.046875 175.367188 220.984375 174 218.847656 172.789062 C 216.707031 171.5625 214.507812 170.507812 212.273438 169.605469 C 210.957031 169.078125 209.609375 168.613281 208.277344 168.191406 L 208.277344 168.101562 C 208.277344 164.714844 207.734375 161.472656 206.773438 158.488281 C 205.78125 155.402344 204.324219 152.605469 202.496094 150.261719 C 202.0625 149.6875 201.613281 149.144531 201.132812 148.632812 C 200.710938 148.195312 200.292969 147.777344 199.859375 147.375 C 201.394531 145.152344 204.277344 141.367188 207.71875 138.960938 C 211.207031 136.539062 215.296875 135.542969 219.09375 139.207031 C 220.519531 140.589844 221.433594 141.847656 221.960938 142.964844 C 222.550781 144.207031 222.644531 145.246094 222.410156 146.070312 C 222.316406 146.410156 222.164062 146.707031 221.976562 146.96875 C 221.777344 147.234375 221.527344 147.453125 221.25 147.621094 L 221.21875 147.621094 C 220.96875 147.777344 220.722656 147.886719 220.472656 147.933594 C 220.242188 147.980469 220.007812 147.980469 219.808594 147.933594 C 219.542969 147.855469 219.265625 147.652344 219.03125 147.28125 C 218.816406 146.90625 218.613281 146.378906 218.488281 145.683594 C 218.304688 144.65625 217.730469 143.804688 216.941406 143.257812 C 216.148438 142.714844 215.140625 142.46875 214.121094 142.640625 C 213.097656 142.824219 212.242188 143.414062 211.703125 144.191406 C 211.160156 144.984375 210.894531 145.992188 211.082031 147.015625 C 211.484375 149.269531 212.320312 151.039062 213.421875 152.359375 C 214.660156 153.847656 216.226562 154.78125 217.917969 155.230469 C 219.125 155.539062 220.367188 155.585938 221.574219 155.402344 C 222.8125 155.199219 224.023438 154.765625 225.109375 154.097656 C 226.191406 153.445312 227.167969 152.574219 227.960938 151.535156 C 228.71875 150.542969 229.308594 149.390625 229.664062 148.105469 C 230.269531 145.992188 230.238281 143.523438 229.246094 140.867188 C 228.394531 138.601562 226.8125 136.195312 224.300781 133.773438 C 223.371094 132.875 222.425781 132.097656 221.496094 131.476562 C 217.09375 128.511719 212.785156 128.417969 208.863281 129.800781 C 204.992188 131.164062 201.519531 133.976562 198.773438 136.832031 C 196.402344 139.285156 194.574219 141.769531 193.460938 143.414062 C 192.542969 143.074219 191.613281 142.824219 190.652344 142.640625 C 189.632812 142.453125 188.578125 142.34375 187.523438 142.34375 C 186.453125 142.34375 185.414062 142.453125 184.375 142.640625 C 183.429688 142.824219 182.5 143.074219 181.585938 143.414062 C 180.472656 141.769531 178.625 139.285156 176.269531 136.832031 C 173.511719 133.976562 170.039062 131.164062 166.164062 129.800781 C 162.261719 128.417969 157.953125 128.511719 153.550781 131.476562 C 152.621094 132.097656 151.675781 132.875 150.730469 133.773438 C 148.234375 136.195312 146.652344 138.601562 145.800781 140.867188 C 144.808594 143.523438 144.777344 145.992188 145.367188 148.105469 C 145.738281 149.390625 146.328125 150.542969 147.070312 151.535156 C 147.878906 152.574219 148.855469 153.445312 149.921875 154.097656 C 151.023438 154.765625 152.230469 155.199219 153.472656 155.402344 C 154.679688 155.585938 155.921875 155.539062 157.128906 155.230469 C 158.820312 154.78125 160.382812 153.847656 161.625 152.359375 C 162.726562 151.039062 163.5625 149.269531 163.964844 147.015625 C 164.136719 145.992188 163.886719 144.984375 163.34375 144.191406 C 162.785156 143.414062 161.933594 142.824219 160.910156 142.640625 C 159.902344 142.46875 158.898438 142.714844 158.105469 143.257812 C 157.316406 143.804688 156.742188 144.65625 156.554688 145.683594 C 156.433594 146.378906 156.230469 146.90625 156 147.28125 C 155.78125 147.652344 155.503906 147.855469 155.238281 147.933594 C 155.039062 147.980469 154.804688 147.980469 154.574219 147.933594 C 154.324219 147.886719 154.0625 147.777344 153.8125 147.621094 C 153.535156 147.46875 153.269531 147.234375 153.070312 146.96875 C 152.882812 146.707031 152.726562 146.410156 152.636719 146.070312 C 152.402344 145.246094 152.496094 144.207031 153.085938 142.964844 C 153.613281 141.847656 154.527344 140.589844 155.953125 139.207031 C 156.417969 138.773438 156.882812 138.398438 157.347656 138.089844 C 159.71875 136.476562 162.167969 136.507812 164.476562 137.40625 C 166.816406 138.324219 169.046875 140.140625 170.910156 142.078125 C 172.738281 143.972656 174.226562 145.976562 175.171875 147.375 C 174.738281 147.777344 174.316406 148.210938 173.914062 148.648438 C 173.433594 149.160156 172.984375 149.6875 172.535156 150.261719 C 170.722656 152.605469 169.265625 155.402344 168.257812 158.488281 C 167.296875 161.472656 166.769531 164.714844 166.769531 168.101562 L 166.769531 168.191406 C 165.453125 168.597656 164.136719 169.0625 162.832031 169.589844 C 160.585938 170.492188 158.355469 171.546875 156.199219 172.789062 C 154.0625 174 151.984375 175.367188 150 176.886719 C 148.046875 178.378906 146.171875 180.023438 144.390625 181.792969 Z M 187.523438 186.28125 C 186.546875 186.28125 185.601562 186.125 184.6875 185.84375 L 184.65625 185.84375 L 184.65625 185.828125 L 184.625 185.828125 L 184.59375 185.816406 L 184.578125 185.816406 L 184.546875 185.800781 L 184.515625 185.800781 L 184.5 185.785156 L 184.46875 185.785156 L 184.4375 185.769531 L 184.421875 185.753906 L 184.390625 185.753906 L 184.363281 185.738281 L 184.332031 185.738281 L 184.316406 185.722656 L 184.285156 185.722656 L 184.285156 185.707031 L 184.253906 185.707031 L 184.222656 185.691406 L 184.207031 185.691406 L 184.144531 185.660156 C 183.648438 185.472656 183.167969 185.253906 182.703125 185.007812 L 182.5625 184.929688 L 182.546875 184.929688 L 182.546875 184.914062 L 182.300781 184.773438 L 182.285156 184.757812 L 182.269531 184.757812 L 182.253906 184.742188 L 182.238281 184.742188 L 182.222656 184.726562 L 182.207031 184.726562 L 182.160156 184.679688 L 182.144531 184.679688 L 182.113281 184.664062 L 182.097656 184.648438 C 181.867188 184.511719 181.648438 184.355469 181.417969 184.183594 L 181.402344 184.183594 L 181.402344 184.167969 L 181.386719 184.167969 L 181.355469 184.136719 L 181.339844 184.136719 L 181.167969 183.996094 C 180.859375 183.765625 180.5625 183.515625 180.269531 183.253906 L 180.160156 183.144531 C 179.542969 182.523438 179.015625 181.964844 178.550781 181.359375 C 178.039062 180.722656 177.589844 180.039062 177.109375 179.214844 L 177 179.015625 L 176.78125 178.609375 L 176.703125 178.472656 C 176.394531 177.804688 176.023438 176.964844 175.976562 176.855469 C 175.820312 176.453125 175.683594 176.082031 175.542969 175.691406 L 175.527344 175.660156 L 175.527344 175.644531 L 175.511719 175.628906 L 175.511719 175.613281 L 175.386719 175.210938 L 175.308594 174.992188 C 175.234375 174.730469 175.15625 174.464844 175.09375 174.203125 L 175.03125 173.953125 L 174.859375 173.175781 L 174.84375 173.144531 L 174.691406 172.324219 L 174.582031 171.703125 C 174.410156 170.539062 174.332031 169.328125 174.332031 168.101562 C 174.332031 166.996094 174.394531 165.925781 174.535156 164.871094 C 175.386719 165.492188 176.425781 165.863281 177.558594 165.863281 C 180.394531 165.863281 182.6875 163.550781 182.6875 160.710938 C 182.6875 158.023438 180.609375 155.804688 177.976562 155.585938 C 178.144531 155.339844 178.316406 155.105469 178.503906 154.871094 C 179.710938 153.304688 181.136719 152.046875 182.703125 151.191406 C 184.191406 150.371094 185.832031 149.921875 187.523438 149.921875 C 189.210938 149.921875 190.839844 150.371094 192.34375 151.191406 C 193.910156 152.046875 195.335938 153.304688 196.542969 154.871094 C 196.730469 155.105469 196.898438 155.339844 197.070312 155.585938 C 194.4375 155.804688 192.359375 158.023438 192.359375 160.710938 C 192.359375 163.550781 194.652344 165.863281 197.488281 165.863281 C 198.621094 165.863281 199.660156 165.492188 200.511719 164.871094 C 200.652344 165.925781 200.710938 166.996094 200.710938 168.101562 C 200.710938 169.328125 200.636719 170.523438 200.464844 171.671875 L 200.355469 172.277344 L 200.355469 172.339844 L 200.214844 173.082031 L 200.1875 173.238281 L 200.046875 173.8125 L 199.984375 174.03125 L 199.613281 175.351562 L 199.550781 175.535156 L 199.535156 175.597656 C 199.164062 176.671875 198.746094 177.679688 198.265625 178.625 L 198.25 178.640625 L 198.21875 178.703125 L 198.21875 178.71875 L 198.1875 178.75 L 198.171875 178.796875 L 198.15625 178.8125 L 198.140625 178.859375 L 198.078125 178.953125 L 198.0625 179 L 198.046875 179.015625 L 198.03125 179.0625 L 198.015625 179.09375 L 198 179.109375 L 197.96875 179.167969 L 197.953125 179.183594 L 197.9375 179.214844 L 197.875 179.308594 L 197.859375 179.355469 L 197.859375 179.371094 L 197.769531 179.527344 L 197.753906 179.542969 L 197.644531 179.714844 L 197.644531 179.730469 L 197.613281 179.773438 L 197.582031 179.804688 L 197.582031 179.820312 L 197.550781 179.867188 L 197.535156 179.898438 L 197.519531 179.914062 L 197.488281 179.976562 L 197.472656 179.992188 L 197.457031 180.023438 L 197.363281 180.164062 L 197.332031 180.226562 C 196.898438 180.863281 196.417969 181.484375 195.878906 182.121094 L 195.675781 182.351562 L 195.582031 182.445312 L 195.566406 182.476562 L 195.535156 182.492188 L 195.535156 182.507812 L 195.425781 182.617188 L 195.414062 182.632812 L 195.351562 182.695312 L 195.335938 182.726562 L 195.304688 182.742188 L 195.273438 182.773438 L 195.257812 182.785156 L 195.132812 182.910156 L 195.117188 182.941406 L 195.101562 182.941406 L 194.992188 183.050781 L 194.960938 183.066406 L 194.960938 183.082031 L 194.933594 183.097656 L 194.917969 183.128906 L 194.902344 183.128906 L 194.886719 183.144531 L 194.871094 183.175781 L 194.839844 183.191406 L 194.777344 183.253906 L 194.761719 183.253906 L 194.746094 183.285156 L 194.714844 183.300781 L 194.714844 183.316406 L 194.683594 183.332031 L 194.667969 183.347656 L 194.636719 183.363281 L 194.636719 183.378906 L 194.621094 183.390625 L 194.589844 183.421875 L 194.574219 183.421875 L 194.511719 183.484375 L 194.480469 183.5 L 194.464844 183.53125 L 194.453125 183.546875 L 194.4375 183.546875 L 194.390625 183.59375 L 194.375 183.59375 L 194.359375 183.609375 L 194.34375 183.640625 L 194.28125 183.671875 L 194.265625 183.703125 L 194.25 183.703125 L 194.234375 183.71875 L 194.203125 183.734375 L 194.078125 183.84375 C 193.492188 184.308594 192.871094 184.726562 192.203125 185.085938 L 192.15625 185.101562 L 192.0625 185.148438 L 192.019531 185.179688 L 191.988281 185.195312 C 190.59375 185.890625 189.089844 186.28125 187.523438 186.28125 Z M 206.773438 177.695312 C 206.972656 177.089844 207.160156 176.453125 207.316406 175.816406 C 208.601562 176.25 209.871094 176.746094 211.128906 177.304688 C 212.476562 177.914062 213.808594 178.59375 215.125 179.339844 C 216.941406 180.378906 218.722656 181.5625 220.441406 182.878906 C 222.132812 184.167969 223.757812 185.582031 225.308594 187.148438 C 228.066406 189.914062 230.410156 192.910156 232.347656 196.0625 C 234.328125 199.320312 235.878906 202.738281 236.964844 206.214844 C 237.957031 209.382812 238.59375 212.59375 238.839844 215.808594 C 239.089844 218.929688 238.980469 222.050781 238.53125 225.09375 C 235.492188 225.542969 232.375 225.652344 229.261719 225.402344 C 226.054688 225.15625 222.84375 224.519531 219.683594 223.523438 C 216.382812 222.484375 213.128906 221.027344 210.027344 219.179688 C 207.019531 217.378906 204.136719 215.203125 201.472656 212.65625 L 200.652344 211.851562 C 199.628906 210.824219 198.652344 209.753906 197.738281 208.667969 C 196.824219 207.566406 195.953125 206.433594 195.148438 205.269531 C 193.675781 203.125 192.421875 200.984375 191.304688 198.636719 L 191.304688 193.421875 C 192.621094 193.125 193.894531 192.675781 195.101562 192.070312 L 195.117188 192.085938 L 195.335938 191.960938 L 195.675781 191.792969 L 195.800781 191.730469 L 195.953125 191.636719 C 197.117188 191 198.21875 190.222656 199.253906 189.339844 L 199.300781 189.308594 L 199.332031 189.277344 L 199.378906 189.246094 L 199.441406 189.183594 L 199.457031 189.183594 L 199.550781 189.089844 L 199.566406 189.089844 L 199.707031 188.949219 L 199.75 188.917969 L 199.78125 188.886719 L 199.8125 188.859375 L 199.859375 188.828125 L 199.875 188.8125 L 199.890625 188.78125 L 199.921875 188.75 L 199.96875 188.71875 L 200 188.6875 L 200.046875 188.65625 L 200.078125 188.609375 L 200.109375 188.578125 L 200.1875 188.515625 C 200.574219 188.144531 200.945312 187.753906 201.316406 187.351562 L 201.535156 187.101562 C 202.167969 186.390625 202.757812 185.628906 203.300781 184.835938 L 203.332031 184.804688 L 203.332031 184.789062 L 203.410156 184.679688 L 203.457031 184.617188 L 203.488281 184.558594 L 203.519531 184.511719 L 203.566406 184.449219 L 203.59375 184.402344 L 203.640625 184.324219 L 203.703125 184.230469 L 203.71875 184.214844 L 203.75 184.167969 L 203.78125 184.105469 L 203.796875 184.089844 L 203.8125 184.058594 L 203.859375 183.996094 L 203.875 183.96875 L 203.890625 183.9375 L 203.953125 183.84375 L 203.96875 183.828125 L 204 183.765625 L 204.03125 183.71875 L 204.058594 183.65625 L 204.089844 183.609375 L 204.105469 183.59375 L 204.136719 183.53125 L 204.167969 183.484375 L 204.167969 183.46875 L 204.214844 183.40625 L 204.246094 183.363281 L 204.308594 183.238281 L 204.324219 183.238281 L 204.417969 183.050781 L 204.496094 182.941406 L 204.527344 182.878906 L 204.527344 182.863281 L 204.554688 182.816406 L 204.585938 182.757812 L 204.617188 182.695312 L 204.679688 182.601562 L 204.851562 182.257812 L 204.882812 182.226562 L 204.898438 182.195312 L 204.929688 182.136719 L 204.945312 182.089844 L 204.960938 182.074219 L 204.992188 182.011719 L 205.019531 181.964844 L 205.019531 181.949219 L 205.050781 181.886719 L 205.082031 181.839844 L 205.113281 181.777344 C 205.457031 181.09375 205.765625 180.394531 206.058594 179.699219 L 206.167969 179.417969 L 206.214844 179.277344 C 206.417969 178.75 206.601562 178.238281 206.773438 177.695312 Z M 209.035156 227.265625 L 210.292969 227.886719 C 210.523438 229.332031 210.695312 230.792969 210.847656 232.25 C 209.300781 232.839844 207.71875 233.382812 206.105469 233.851562 C 204.433594 234.347656 202.695312 234.765625 200.929688 235.121094 C 198.804688 235.558594 196.605469 235.898438 194.34375 236.117188 C 192.140625 236.332031 189.863281 236.441406 187.523438 236.441406 C 185.183594 236.441406 182.90625 236.332031 180.703125 236.117188 C 178.441406 235.898438 176.238281 235.558594 174.117188 235.121094 C 172.351562 234.765625 170.613281 234.347656 168.941406 233.851562 C 167.328125 233.382812 165.746094 232.839844 164.199219 232.25 C 164.351562 230.792969 164.523438 229.332031 164.738281 227.886719 L 166.011719 227.265625 C 167.484375 227.808594 169.003906 228.308594 170.566406 228.757812 C 172.148438 229.191406 173.808594 229.597656 175.496094 229.90625 C 177.433594 230.277344 179.433594 230.558594 181.464844 230.761719 C 183.460938 230.945312 185.492188 231.039062 187.523438 231.039062 C 189.554688 231.039062 191.582031 230.945312 193.582031 230.761719 C 195.613281 230.558594 197.613281 230.277344 199.550781 229.90625 C 201.238281 229.582031 202.882812 229.191406 204.480469 228.757812 C 206.042969 228.308594 207.5625 227.808594 209.035156 227.265625 Z M 199.253906 220.792969 C 199.722656 221.179688 200.203125 221.570312 200.695312 221.941406 L 199.796875 222.160156 C 199.253906 222.269531 198.714844 222.390625 198.15625 222.5 C 196.464844 222.8125 194.714844 223.058594 192.933594 223.230469 C 191.179688 223.386719 189.382812 223.480469 187.523438 223.480469 C 185.664062 223.480469 183.867188 223.386719 182.113281 223.230469 C 180.332031 223.058594 178.582031 222.8125 176.875 222.5 C 176.332031 222.390625 175.789062 222.285156 175.261719 222.160156 L 174.347656 221.941406 C 174.984375 221.445312 175.605469 220.949219 176.222656 220.4375 C 177.015625 219.753906 177.789062 219.054688 178.566406 218.339844 C 178.953125 217.953125 179.339844 217.578125 179.726562 217.207031 C 180.90625 216.011719 182.019531 214.785156 183.089844 213.527344 C 184.160156 212.238281 185.167969 210.917969 186.097656 209.582031 C 186.40625 209.132812 186.703125 208.699219 186.980469 208.265625 L 187.523438 207.410156 L 188.066406 208.28125 L 188.949219 209.582031 C 189.878906 210.917969 190.886719 212.238281 191.957031 213.527344 C 193.011719 214.785156 194.140625 216.011719 195.320312 217.207031 C 195.878906 217.765625 196.714844 218.652344 197.320312 219.117188 C 197.96875 219.707031 198.621094 220.265625 199.253906 220.792969 Z M 187.523438 244.003906 C 190.035156 244.003906 192.542969 243.878906 195.007812 243.628906 C 197.519531 243.382812 200 243.007812 202.402344 242.511719 C 203.984375 242.203125 205.515625 241.828125 207.035156 241.425781 C 208.382812 241.054688 209.734375 240.648438 211.050781 240.199219 C 211.003906 241.160156 210.941406 242.09375 210.847656 243.007812 C 210.757812 244.035156 210.617188 245.042969 210.460938 246.035156 C 208.863281 246.535156 207.222656 246.96875 205.5625 247.355469 C 203.84375 247.761719 202.109375 248.117188 200.355469 248.398438 C 198.292969 248.722656 196.1875 248.988281 194.015625 249.15625 C 191.894531 249.328125 189.722656 249.40625 187.523438 249.40625 C 185.308594 249.40625 183.136719 249.328125 181.027344 249.15625 C 178.859375 248.988281 176.75 248.722656 174.691406 248.398438 C 172.9375 248.117188 171.203125 247.761719 169.484375 247.355469 C 167.824219 246.96875 166.179688 246.535156 164.570312 246.035156 C 164.429688 245.058594 164.289062 244.066406 164.199219 243.054688 C 164.105469 242.125 164.027344 241.160156 163.996094 240.199219 C 165.296875 240.632812 166.644531 241.054688 168.011719 241.425781 C 169.511719 241.828125 171.046875 242.203125 172.628906 242.511719 C 175.046875 243.007812 177.527344 243.382812 180.039062 243.628906 C 182.5 243.878906 185.011719 244.003906 187.523438 244.003906 Z M 194.542969 256.6875 C 196.882812 256.5 199.226562 256.222656 201.535156 255.847656 C 202.804688 255.632812 204.046875 255.398438 205.269531 255.148438 C 206.308594 254.933594 207.316406 254.699219 208.324219 254.453125 L 207.78125 255.878906 C 207.4375 256.734375 207.082031 257.558594 206.710938 258.347656 C 206.339844 259.125 205.96875 259.871094 205.5625 260.613281 C 204.246094 260.878906 202.914062 261.113281 201.597656 261.3125 C 200.214844 261.53125 198.851562 261.703125 197.457031 261.855469 C 195.847656 262.027344 194.21875 262.167969 192.542969 262.246094 C 190.917969 262.339844 189.242188 262.371094 187.523438 262.371094 C 185.804688 262.371094 184.128906 262.339844 182.5 262.246094 C 180.828125 262.167969 179.183594 262.027344 177.589844 261.855469 C 176.222656 261.703125 174.84375 261.53125 173.449219 261.3125 C 172.117188 261.113281 170.800781 260.878906 169.484375 260.613281 C 169.15625 260.023438 168.847656 259.417969 168.550781 258.8125 C 168.242188 258.164062 167.933594 257.496094 167.636719 256.796875 C 167.3125 256.019531 167.019531 255.242188 166.722656 254.453125 C 167.730469 254.699219 168.738281 254.933594 169.777344 255.148438 C 170.984375 255.398438 172.242188 255.632812 173.511719 255.847656 C 175.820312 256.222656 178.144531 256.5 180.503906 256.6875 C 182.828125 256.875 185.167969 256.980469 187.523438 256.980469 C 189.878906 256.980469 192.21875 256.875 194.542969 256.6875 Z M 198.265625 269.355469 L 199.519531 269.214844 C 197.707031 271.25 195.863281 272.957031 194.140625 274.355469 C 191.414062 276.574219 189.011719 278.050781 187.523438 278.855469 C 186.035156 278.050781 183.632812 276.574219 180.90625 274.355469 C 179.183594 272.957031 177.339844 271.25 175.527344 269.214844 L 176.78125 269.355469 C 178.582031 269.558594 180.378906 269.699219 182.175781 269.789062 C 183.972656 269.898438 185.757812 269.945312 187.523438 269.945312 C 189.289062 269.945312 191.074219 269.898438 192.871094 269.789062 C 194.667969 269.699219 196.464844 269.558594 198.265625 269.355469 Z M 198.265625 269.355469 " fill-opacity="1" fill-rule="evenodd"/><g fill="#73b270" fill-opacity="1"><g transform="translate(122.940242, 350.014983)"><g><path d="M 17.03125 0 L 1.4375 0 L 1.4375 -12.9375 L 16.3125 -12.9375 L 16.3125 -9.734375 L 6.875 -9.734375 L 6.875 -7.703125 L 14.859375 -7.703125 L 14.859375 -5.21875 L 6.875 -5.21875 L 6.875 -3.203125 L 17.03125 -3.203125 Z M 17.03125 0 "/></g></g><g transform="translate(140.692596, 350.014983)"><g><path d="M 8.546875 0.28125 C 6.796875 0.28125 5.382812 0.09375 4.3125 -0.28125 C 3.25 -0.65625 2.4375 -1.171875 1.875 -1.828125 C 1.3125 -2.492188 0.9375 -3.253906 0.75 -4.109375 L 6.515625 -4.109375 C 6.941406 -3.492188 7.617188 -3.1875 8.546875 -3.1875 C 9.484375 -3.1875 10.164062 -3.492188 10.59375 -4.109375 C 10.625 -4.171875 10.640625 -4.226562 10.640625 -4.28125 C 10.640625 -4.4375 10.425781 -4.554688 10 -4.640625 C 9.570312 -4.722656 8.929688 -4.785156 8.078125 -4.828125 C 6.992188 -4.867188 5.863281 -4.984375 4.6875 -5.171875 C 2.039062 -5.578125 0.71875 -6.632812 0.71875 -8.34375 C 0.71875 -8.488281 0.726562 -8.644531 0.75 -8.8125 C 0.9375 -9.664062 1.3125 -10.421875 1.875 -11.078125 C 2.4375 -11.742188 3.25 -12.265625 4.3125 -12.640625 C 5.382812 -13.015625 6.796875 -13.203125 8.546875 -13.203125 C 10.296875 -13.203125 11.707031 -13.015625 12.78125 -12.640625 C 13.851562 -12.265625 14.664062 -11.742188 15.21875 -11.078125 C 15.78125 -10.421875 16.15625 -9.664062 16.34375 -8.8125 L 10.59375 -8.8125 C 10.164062 -9.425781 9.484375 -9.734375 8.546875 -9.734375 C 7.617188 -9.734375 6.941406 -9.425781 6.515625 -8.8125 C 6.484375 -8.757812 6.46875 -8.710938 6.46875 -8.671875 C 6.46875 -8.523438 6.671875 -8.414062 7.078125 -8.34375 C 7.492188 -8.28125 8.101562 -8.222656 8.90625 -8.171875 C 9.707031 -8.128906 10.5625 -8.050781 11.46875 -7.9375 C 12.375 -7.832031 13.222656 -7.644531 14.015625 -7.375 C 14.804688 -7.113281 15.425781 -6.722656 15.875 -6.203125 C 16.21875 -5.796875 16.390625 -5.28125 16.390625 -4.65625 C 16.390625 -4.488281 16.375 -4.304688 16.34375 -4.109375 C 16.15625 -3.253906 15.78125 -2.492188 15.21875 -1.828125 C 14.664062 -1.171875 13.851562 -0.65625 12.78125 -0.28125 C 11.707031 0.09375 10.296875 0.28125 8.546875 0.28125 Z M 8.546875 0.28125 "/></g></g><g transform="translate(157.813515, 350.014983)"><g><path d="M 11.03125 0 L 5.609375 0 L 5.609375 -9.734375 L 0.546875 -9.734375 L 0.546875 -12.9375 L 16.109375 -12.9375 L 16.109375 -9.734375 L 11.03125 -9.734375 Z M 11.03125 0 "/></g></g><g transform="translate(174.465368, 350.014983)"><g/></g><g transform="translate(179.047785, 350.014983)"><g><path d="M 15.9375 0 L 0.71875 0 L 0.71875 -3.203125 C 0.71875 -3.960938 0.9375 -4.585938 1.375 -5.078125 C 1.8125 -5.566406 2.378906 -5.960938 3.078125 -6.265625 C 3.773438 -6.566406 4.519531 -6.804688 5.3125 -6.984375 C 6.113281 -7.171875 6.890625 -7.320312 7.640625 -7.4375 C 8.617188 -7.59375 9.398438 -7.769531 9.984375 -7.96875 C 10.429688 -8.101562 10.65625 -8.300781 10.65625 -8.5625 C 10.65625 -8.644531 10.632812 -8.726562 10.59375 -8.8125 C 10.175781 -9.425781 9.5 -9.734375 8.5625 -9.734375 C 7.625 -9.734375 6.941406 -9.425781 6.515625 -8.8125 L 0.75 -8.8125 C 0.945312 -9.675781 1.320312 -10.4375 1.875 -11.09375 C 2.4375 -11.75 3.253906 -12.265625 4.328125 -12.640625 C 5.398438 -13.023438 6.8125 -13.21875 8.5625 -13.21875 C 10.3125 -13.21875 11.71875 -13.023438 12.78125 -12.640625 C 13.851562 -12.265625 14.664062 -11.75 15.21875 -11.09375 C 15.78125 -10.4375 16.160156 -9.675781 16.359375 -8.8125 C 16.390625 -8.613281 16.40625 -8.425781 16.40625 -8.25 C 16.40625 -7.375 16.070312 -6.65625 15.40625 -6.09375 C 14.75 -5.53125 13.851562 -5.101562 12.71875 -4.8125 C 11.582031 -4.53125 10.472656 -4.316406 9.390625 -4.171875 C 8.847656 -4.085938 8.359375 -4 7.921875 -3.90625 C 7.484375 -3.820312 7.132812 -3.722656 6.875 -3.609375 C 6.613281 -3.503906 6.484375 -3.367188 6.484375 -3.203125 L 15.9375 -3.203125 Z M 15.9375 0 "/></g></g><g transform="translate(196.177725, 350.014983)"><g><path d="M 8.5625 0.28125 C 5.789062 0.28125 3.753906 -0.378906 2.453125 -1.703125 C 1.296875 -2.859375 0.71875 -4.445312 0.71875 -6.46875 C 0.71875 -8.476562 1.296875 -10.066406 2.453125 -11.234375 C 3.753906 -12.546875 5.789062 -13.203125 8.5625 -13.203125 C 11.332031 -13.203125 13.367188 -12.546875 14.671875 -11.234375 C 15.828125 -10.066406 16.40625 -8.476562 16.40625 -6.46875 C 16.40625 -4.445312 15.828125 -2.859375 14.671875 -1.703125 C 13.367188 -0.378906 11.332031 0.28125 8.5625 0.28125 Z M 8.5625 -3.1875 C 9.5625 -3.1875 10.242188 -3.582031 10.609375 -4.375 C 10.847656 -4.914062 10.96875 -5.613281 10.96875 -6.46875 C 10.96875 -7.3125 10.847656 -8.003906 10.609375 -8.546875 C 10.242188 -9.335938 9.5625 -9.734375 8.5625 -9.734375 C 7.5625 -9.734375 6.878906 -9.335938 6.515625 -8.546875 C 6.273438 -8.003906 6.15625 -7.3125 6.15625 -6.46875 C 6.15625 -5.613281 6.273438 -4.914062 6.515625 -4.375 C 6.878906 -3.582031 7.5625 -3.1875 8.5625 -3.1875 Z M 8.5625 -3.1875 "/></g></g><g transform="translate(213.316685, 350.014983)"><g><path d="M 15.9375 0 L 0.71875 0 L 0.71875 -3.203125 C 0.71875 -3.960938 0.9375 -4.585938 1.375 -5.078125 C 1.8125 -5.566406 2.378906 -5.960938 3.078125 -6.265625 C 3.773438 -6.566406 4.519531 -6.804688 5.3125 -6.984375 C 6.113281 -7.171875 6.890625 -7.320312 7.640625 -7.4375 C 8.617188 -7.59375 9.398438 -7.769531 9.984375 -7.96875 C 10.429688 -8.101562 10.65625 -8.300781 10.65625 -8.5625 C 10.65625 -8.644531 10.632812 -8.726562 10.59375 -8.8125 C 10.175781 -9.425781 9.5 -9.734375 8.5625 -9.734375 C 7.625 -9.734375 6.941406 -9.425781 6.515625 -8.8125 L 0.75 -8.8125 C 0.945312 -9.675781 1.320312 -10.4375 1.875 -11.09375 C 2.4375 -11.75 3.253906 -12.265625 4.328125 -12.640625 C 5.398438 -13.023438 6.8125 -13.21875 8.5625 -13.21875 C 10.3125 -13.21875 11.71875 -13.023438 12.78125 -12.640625 C 13.851562 -12.265625 14.664062 -11.75 15.21875 -11.09375 C 15.78125 -10.4375 16.160156 -9.675781 16.359375 -8.8125 C 16.390625 -8.613281 16.40625 -8.425781 16.40625 -8.25 C 16.40625 -7.375 16.070312 -6.65625 15.40625 -6.09375 C 14.75 -5.53125 13.851562 -5.101562 12.71875 -4.8125 C 11.582031 -4.53125 10.472656 -4.316406 9.390625 -4.171875 C 8.847656 -4.085938 8.359375 -4 7.921875 -3.90625 C 7.484375 -3.820312 7.132812 -3.722656 6.875 -3.609375 C 6.613281 -3.503906 6.484375 -3.367188 6.484375 -3.203125 L 15.9375 -3.203125 Z M 15.9375 0 "/></g></g><g transform="translate(230.446625, 350.014983)"><g><path d="M 8.515625 0.28125 C 6.765625 0.28125 5.351562 0.09375 4.28125 -0.28125 C 3.21875 -0.65625 2.40625 -1.171875 1.84375 -1.828125 C 1.289062 -2.492188 0.914062 -3.253906 0.71875 -4.109375 L 6.484375 -4.109375 C 6.484375 -3.804688 6.679688 -3.578125 7.078125 -3.421875 C 7.484375 -3.265625 7.960938 -3.1875 8.515625 -3.1875 C 9.867188 -3.1875 10.546875 -3.492188 10.546875 -4.109375 C 10.546875 -4.648438 10.316406 -5.003906 9.859375 -5.171875 C 9.429688 -5.328125 8.691406 -5.40625 7.640625 -5.40625 L 7.421875 -5.40625 L 7.421875 -7.515625 L 7.640625 -7.515625 C 8.691406 -7.515625 9.4375 -7.59375 9.875 -7.75 C 10.320312 -7.914062 10.546875 -8.269531 10.546875 -8.8125 C 10.546875 -9.425781 9.867188 -9.734375 8.515625 -9.734375 C 7.960938 -9.734375 7.484375 -9.65625 7.078125 -9.5 C 6.679688 -9.34375 6.484375 -9.113281 6.484375 -8.8125 L 0.71875 -8.8125 C 0.914062 -9.664062 1.289062 -10.421875 1.84375 -11.078125 C 2.40625 -11.742188 3.21875 -12.265625 4.28125 -12.640625 C 5.351562 -13.015625 6.765625 -13.203125 8.515625 -13.203125 C 10.265625 -13.203125 11.710938 -13.015625 12.859375 -12.640625 C 14.015625 -12.265625 14.878906 -11.742188 15.453125 -11.078125 C 16.023438 -10.421875 16.3125 -9.664062 16.3125 -8.8125 C 16.3125 -8.226562 16.140625 -7.722656 15.796875 -7.296875 C 15.453125 -6.878906 14.914062 -6.597656 14.1875 -6.453125 C 14.914062 -6.304688 15.453125 -6.023438 15.796875 -5.609375 C 16.140625 -5.191406 16.3125 -4.691406 16.3125 -4.109375 C 16.3125 -3.242188 16.023438 -2.484375 15.453125 -1.828125 C 14.878906 -1.171875 14.015625 -0.65625 12.859375 -0.28125 C 11.710938 0.09375 10.265625 0.28125 8.515625 0.28125 Z M 8.515625 0.28125 "/></g></g></g><g fill="#73b270" fill-opacity="1"><g transform="translate(247.477339, 350.014983)"><g/></g></g></svg>